<?xml version="1.0" encoding="UTF-8"?>
<svg width="1011.1mm" height="333mm" version="1.1" viewBox="0 0 1011.0762 332.9957" xmlns="http://www.w3.org/2000/svg" xmlns:cc="http://creativecommons.org/ns#" xmlns:dc="http://purl.org/dc/elements/1.1/" xmlns:rdf="http://www.w3.org/1999/02/22-rdf-syntax-ns#">
<metadata>
<rdf:RDF>
<cc:Work rdf:about="">
<dc:format>image/svg+xml</dc:format>
<dc:type rdf:resource="http://purl.org/dc/dcmitype/StillImage"/>
<dc:title/>
</cc:Work>
</rdf:RDF>
</metadata>
<g transform="translate(605.04 70.393)">
<path transform="scale(.26458)" d="m-1520-266.05a425.71 425.71 0 0 0 -425.71 425.71 425.71 425.71 0 0 0 425.71 425.71 425.71 425.71 0 0 0 425.71 -425.71 425.71 425.71 0 0 0 -425.71 -425.71zm-766.77 149.25v457.87l160.62 137.14v-296.23h56.971l68.572-114.16h-125.54v-52.309h138.78v-132.31zm1486.5 0c-76.106 2.2565-135.08 26.36-176.93 72.311-41.848 45.745-63.08 100.21-63.695 163.39 2.4616 74.465 26.975 132 73.541 172.62 46.771 40.617 100.82 61.338 162.16 62.158 27.078-0.82054 49.952-3.6939 68.619-8.6172 18.873-4.9233 31.898-8.923 39.078-12l4.6152-167.39c-9.8466 7.3849-22.974 15.794-39.385 25.23-16.206 9.2312-36.105 14.258-59.695 15.078-30.36-1.0257-52.207-10.36-65.541-28.002-13.334-17.847-19.898-38.156-19.693-60.926 0.20516-24.411 8.103-44.821 23.693-61.232 15.796-16.616 37.334-25.232 64.617-25.848 21.334 0.61541 39.695 5.3334 55.08 14.154 15.59 8.6157 28.103 17.745 37.539 27.387v-166.16c-13.129-5.949-28.616-11.079-46.463-15.387-17.642-4.3079-36.822-6.5644-57.541-6.7695zm176.31 0v457.87h157.54v-187.39l109.24 187.39h194.47l-154.16-226.47 135.39-231.39h-182.16l-102.77 203.09v-203.09zm674.49 0v156.93h90.158v300.94h160.62v-300.94h90.773v-156.93zm393.86 0v457.87h160.62v-157.24h99.082v157.24h160.62v-457.87h-160.62v160.01h-99.082v-160.01zm508.94 0v595.01l163.39-137.14v-457.87zm424.33 0c-69.952 2.6668-119.08 21.746-147.39 57.234-28.309 35.489-41.952 70.875-40.926 106.16 0.6154 19.898 4.3086 36.924 11.078 51.078 6.7695 14.154 13.539 24.412 20.309 30.771 14.77 13.744 30.361 23.692 46.772 29.846s31.898 10.361 46.463 12.617c14.77 2.2565 26.771 5.3329 36.002 9.2305 9.2312 3.6925 14.051 10.565 14.461 20.617 0 6.7695-2.8716 12.411-8.6152 16.924-5.5387 4.513-14.565 6.871-27.078 7.0762-20.514-0.41028-39.694-5.0248-57.541-13.846-17.642-9.026-35.899-19.694-54.772-32.002l-51.695 124.01c24.411 14.36 52.003 26.052 82.773 35.078 30.976 8.8209 62.464 13.435 94.465 13.846 63.182-2.0514 110.98-19.18 143.39-51.387 32.617-32.412 49.029-69.232 49.234-110.46-1.2308-39.386-10.874-68.003-28.926-85.85-18.052-17.847-39.077-30.053-63.078-36.617-23.796-6.5644-44.722-11.899-62.773-16.002-17.847-4.3079-27.18-12.307-28-24-1e-4 -7.5901 2.9748-13.026 8.9238-16.309 6.1541-3.4873 14.768-5.2305 25.846-5.2305 18.257 0.41027 35.284 4.1015 51.08 11.076 15.796 6.9746 29.436 14.872 40.924 23.693l49.234-116.62c-15.18-8.6157-35.797-17.335-61.85-26.156-25.847-9.026-55.284-13.949-88.311-14.77zm-3039.8 103.25c35.806 0 64.856 29.048 64.856 64.865 0 35.838-29.049 64.887-64.856 64.887-35.817-0.0102-64.867-29.049-64.867-64.887 0-35.806 29.05-64.865 64.867-64.865zm294.14 0c35.806 0 64.867 29.048 64.867 64.865 0 35.838-29.05 64.887-64.867 64.887-35.796-0.0102-64.887-29.049-64.887-64.887 0-35.806 29.08-64.865 64.887-64.865zm-363.66 234.92c12.302 0 23.976 7.2814 28.986 19.363 29.049 69.929 101 115.11 183.3 115.11 80.442 0 151.97-45.21 182.23-115.19 6.8829-15.91 25.356-23.244 41.246-16.34 15.931 6.8726 23.254 25.345 16.371 41.256-40.2 92.963-134.34 153.03-239.85 153.03-107.75 0-202.46-60.367-241.26-153.8-6.6529-16.005 0.9321-34.372 16.947-41.025 3.9332-1.6214 8.0125-2.3965 12.029-2.3965zm625.87 307.9c-80.208 2.4616-140.83 26.975-181.85 73.541-40.822 46.566-61.336 100.41-61.541 161.54 0.8205 64.413 22.462 118.98 64.926 163.7 42.463 44.515 100.41 62.413 173.85 64.465 67.695-1.0257 124.11-16.873 169.24-58.311 45.335-41.643 68.925-99.081 70.771-172.31 0-8.2054-0.20498-16.308-0.61524-24.309-0.41028-8.0004-0.61523-13.128-0.61523-15.385h-246.78v104.62h70.463c-1.0257 11.077-6.4601 20-16.307 26.77-9.8465 6.7695-22.874 10.258-39.08 10.463-28.514-0.82054-49.438-10.666-62.772-29.539-13.129-19.078-19.59-42.67-19.385-70.773 0.4103-30.36 7.6932-54.565 21.848-72.617 14.154-18.052 33.128-27.283 56.924-27.693 17.847 0.61541 31.694 5.025 41.541 13.23 9.8466 8.2055 17.026 16.207 21.539 24.002l143.7-53.541c-19.488-33.848-46.67-61.746-81.543-83.695-34.873-21.95-76.311-33.336-124.31-34.156zm396.94 10.77-158.47 452.48h171.7l13.232-61.08h122.77l13.848 61.08h317.24l26.463-264.16 71.387 264.16h96.313l71.08-264.16 26.461 264.16h158.16l-71.08-452.48h-165.85l-65.541 245.24-62.156-245.24h-166.47l-71.875 421.11-147.52-421.11zm975.43 0v452.48h303.09v-126.01h-145.54v-47.387h60.664l68.572-114.16h-129.24v-43.387h141.85v-121.54zm-889.88 135.39h3.3848l32.615 150.16h-67.387z"/>
</g>
</svg>