<?xml version="1.0" encoding="UTF-8" standalone="no"?>
<!-- Created with Inkscape (http://www.inkscape.org/) -->

<svg
   xmlns:dc="http://purl.org/dc/elements/1.1/"
   xmlns:cc="http://creativecommons.org/ns#"
   xmlns:rdf="http://www.w3.org/1999/02/22-rdf-syntax-ns#"
   xmlns:svg="http://www.w3.org/2000/svg"
   xmlns="http://www.w3.org/2000/svg"
   xmlns:sodipodi="http://sodipodi.sourceforge.net/DTD/sodipodi-0.dtd"
   xmlns:inkscape="http://www.inkscape.org/namespaces/inkscape"
   width="1571.0618mm"
   height="225.27357mm"
   viewBox="0 0 1571.0618 225.27358"
   version="1.1"
   id="svg8"
   sodipodi:docname="f-ckthisgame.svg"
   inkscape:version="0.92.4 (5da689c313, 2019-01-14)">
  <defs
     id="defs2">
    <inkscape:path-effect
       effect="bspline"
       id="path-effect4534"
       is_visible="true"
       weight="33.333333"
       steps="2"
       helper_size="0"
       apply_no_weight="true"
       apply_with_weight="true"
       only_selected="false" />
  </defs>
  <sodipodi:namedview
     id="base"
     pagecolor="#818181"
     bordercolor="#666666"
     borderopacity="1.0"
     inkscape:pageopacity="0"
     inkscape:pageshadow="2"
     inkscape:zoom="0.087500002"
     inkscape:cx="3129.3978"
     inkscape:cy="438.14068"
     inkscape:document-units="mm"
     inkscape:current-layer="layer1"
     showgrid="false"
     showborder="false"
     inkscape:snap-global="false"
     inkscape:window-width="1366"
     inkscape:window-height="705"
     inkscape:window-x="-8"
     inkscape:window-y="-8"
     inkscape:window-maximized="1"
     fit-margin-top="0"
     fit-margin-left="0"
     fit-margin-right="0"
     fit-margin-bottom="0" />
  <metadata
     id="metadata5">
    <rdf:RDF>
      <cc:Work
         rdf:about="">
        <dc:format>image/svg+xml</dc:format>
        <dc:type
           rdf:resource="http://purl.org/dc/dcmitype/StillImage" />
        <dc:title></dc:title>
      </cc:Work>
    </rdf:RDF>
  </metadata>
  <g
     inkscape:label="Layer 1"
     inkscape:groupmode="layer"
     id="layer1"
     transform="translate(605.04109,70.392601)">
    <g
       id="g859"
       transform="translate(-2.064975)">
      <path
         id="path4601"
         transform="scale(0.26458333)"
         d="M 50.558594,-116.79883 V 40.130859 H 140.7168 V 341.06641 H 301.33789 V 40.130859 h 90.77344 V -116.79883 Z"
         style="font-style:normal;font-variant:normal;font-weight:normal;font-stretch:normal;font-size:166.73512268px;line-height:1;font-family:ModernBlck;-inkscape-font-specification:ModernBlck;text-align:center;letter-spacing:0px;word-spacing:0px;text-anchor:middle;fill:#000000;fill-opacity:1;stroke:none;stroke-width:7.38492155"
         inkscape:connector-curvature="0" />
      <path
         id="path4599"
         transform="scale(0.26458333)"
         d="M 444.42188,-116.79883 V 341.06641 H 605.04297 V 183.83008 H 704.125 V 341.06641 H 864.74609 V -116.79883 H 704.125 V 43.208984 H 605.04297 V -116.79883 Z"
         style="font-style:normal;font-variant:normal;font-weight:normal;font-stretch:normal;font-size:166.73512268px;line-height:1;font-family:ModernBlck;-inkscape-font-specification:ModernBlck;text-align:center;letter-spacing:0px;word-spacing:0px;text-anchor:middle;fill:#000000;fill-opacity:1;stroke:none;stroke-width:7.38492155"
         inkscape:connector-curvature="0" />
      <path
         id="path4597"
         transform="scale(0.26458333)"
         d="M 953.36523,-116.79883 V 478.20898 L 1116.7578,341.06641 v -457.86524 z"
         style="font-style:normal;font-variant:normal;font-weight:normal;font-stretch:normal;font-size:166.73512268px;line-height:1;font-family:ModernBlck;-inkscape-font-specification:ModernBlck;text-align:center;letter-spacing:0px;word-spacing:0px;text-anchor:middle;fill:#000000;fill-opacity:1;stroke:none;stroke-width:7.38492155"
         inkscape:connector-curvature="0" />
      <path
         id="path4595"
         transform="scale(0.26458333)"
         d="m 1377.6914,-116.79883 c -69.9516,2.66678 -119.0818,21.745724 -147.3906,57.234377 -28.3089,35.488651 -41.9515,70.874687 -40.9258,106.158203 0.6154,19.89826 4.3086,36.923691 11.0781,51.078125 6.7695,14.154435 13.5391,24.412245 20.3086,30.771485 14.7699,13.74416 30.3606,23.6916 46.7715,29.8457 16.4109,6.1541 31.8982,10.36069 46.4629,12.61719 14.7698,2.2565 26.7708,5.33287 36.0019,9.23047 9.2312,3.69246 14.0507,10.56549 14.461,20.61719 0,6.76951 -2.8715,12.41082 -8.6152,16.92382 -5.5387,4.51302 -14.5648,6.87105 -27.0782,7.07618 -20.5136,-0.41028 -39.6941,-5.02483 -57.541,-13.84571 -17.6418,-9.02601 -35.8989,-19.69375 -54.7715,-32.00195 l -51.6953,124.00586 c 24.4113,14.35957 52.003,26.05211 82.7734,35.07812 30.9757,8.82089 62.4636,13.43543 94.4649,13.84571 63.1821,-2.05137 110.979,-19.18026 143.3906,-51.38672 32.6168,-32.4116 49.0293,-69.23237 49.2344,-110.46484 -1.2308,-39.38626 -10.8738,-68.00272 -28.9258,-85.84961 -18.052,-17.846902 -39.0771,-30.052818 -63.0781,-36.617192 -23.7959,-6.564374 -44.7215,-11.899218 -62.7734,-16.001953 -17.847,-4.30787 -27.1796,-12.307206 -28,-24 -1e-4,-7.590058 2.9748,-13.026406 8.9238,-16.308594 6.1541,-3.4873237 14.7683,-5.2304685 25.8457,-5.2304685 18.2571,0.4102735 35.2845,4.1015235 51.0801,11.0761715 15.7955,6.974649 29.4361,14.87248 40.9238,23.69336 l 49.2344,-116.619141 c -15.1802,-8.61574 -35.7973,-17.335366 -61.8496,-26.156253 -25.8473,-9.02601 -55.2836,-13.94898 -88.3106,-14.76953 z"
         style="font-style:normal;font-variant:normal;font-weight:normal;font-stretch:normal;font-size:166.73512268px;line-height:1;font-family:ModernBlck;-inkscape-font-specification:ModernBlck;text-align:center;letter-spacing:0px;word-spacing:0px;text-anchor:middle;fill:#000000;fill-opacity:1;stroke:none;stroke-width:7.38492155"
         inkscape:connector-curvature="0" />
    </g>
    <g
       id="g853"
       transform="translate(815.29856,-170.93788)">
      <path
         id="path4593"
         transform="scale(0.26458333)"
         d="m -1105.7969,529.26562 c -80.2084,2.46164 -140.8262,26.975 -181.8535,73.54102 -40.8222,46.56605 -61.3359,100.41419 -61.541,161.54492 0.8205,64.41293 22.4625,118.9794 64.9258,163.69922 42.4633,44.51465 100.4145,62.41348 173.8535,64.46484 67.6951,-1.02568 124.10819,-16.87294 169.23827,-58.31054 45.33521,-41.64276 68.92526,-99.08064 70.77149,-172.31446 0,-8.20544 -0.20498,-16.30826 -0.61524,-24.30859 -0.41028,-8.00035 -0.61523,-13.12826 -0.61523,-15.38476 h -246.77929 v 104.61914 h 70.4629 c -1.0257,11.07739 -6.4601,20.00002 -16.3067,26.76953 -9.8465,6.76953 -22.8742,10.25779 -39.08,10.46289 -28.514,-0.82054 -49.4376,-10.66647 -62.7715,-29.53906 -13.1287,-19.07772 -19.5899,-42.66973 -19.3848,-70.77344 0.4103,-30.36024 7.6932,-54.56516 21.8477,-72.61719 14.1544,-18.05203 33.1279,-27.28308 56.9238,-27.69336 17.8469,0.61541 31.6945,5.02499 41.541,13.23047 9.8466,8.20546 17.0261,16.20675 21.5391,24.00195 l 143.69919,-53.54101 c -19.488,-33.84756 -46.66972,-61.74569 -81.54297,-83.69531 -34.87322,-21.94964 -76.31052,-33.33572 -124.31252,-34.15626 z"
         style="font-style:normal;font-variant:normal;font-weight:normal;font-stretch:normal;font-size:166.73512268px;line-height:1;font-family:ModernBlck;-inkscape-font-specification:ModernBlck;text-align:center;letter-spacing:0px;word-spacing:0px;text-anchor:middle;fill:#000000;fill-opacity:1;stroke:none;stroke-width:7.38492155"
         inkscape:connector-curvature="0" />
      <path
         id="path4591"
         transform="scale(0.26458333)"
         d="m -708.85742,540.03516 -158.46875,452.48046 h 171.69922 l 13.23242,-61.08007 h 122.77344 l 13.84765,61.08007 h 173.23828 144.00586 l 26.46289,-264.16406 71.38672,264.16406 h 96.312502 L 36.712891,728.35156 63.173828,992.51562 H 221.33594 L 150.25586,540.03516 H -15.597656 L -81.138672,785.27539 -143.29492,540.03516 h -166.46875 l -71.875,421.10937 -147.51953,-421.10937 z m 85.54297,135.39062 h 3.38476 l 32.61524,150.16016 h -67.38672 z"
         style="font-style:normal;font-variant:normal;font-weight:normal;font-stretch:normal;font-size:166.73512268px;line-height:1;font-family:ModernBlck;-inkscape-font-specification:ModernBlck;text-align:center;letter-spacing:0px;word-spacing:0px;text-anchor:middle;fill:#000000;fill-opacity:1;stroke:none;stroke-width:7.38492155"
         inkscape:connector-curvature="0" />
      <path
         id="path4589"
         transform="scale(0.26458333)"
         d="M 266.56836,540.03516 V 992.51562 H 569.6582 V 866.50977 H 424.11328 v -47.38672 h 60.66406 L 553.34961,704.96484 H 424.11328 V 661.57812 H 565.96484 V 540.03516 Z"
         style="font-style:normal;font-variant:normal;font-weight:normal;font-stretch:normal;font-size:166.73512268px;line-height:1;font-family:ModernBlck;-inkscape-font-specification:ModernBlck;text-align:center;letter-spacing:0px;word-spacing:0px;text-anchor:middle;fill:#000000;fill-opacity:1;stroke:none;stroke-width:7.38492155"
         inkscape:connector-curvature="0" />
    </g>
    <g
       id="g865">
      <path
         id="path4607"
         transform="scale(0.26458333)"
         d="m -2286.7695,-116.79883 v 457.86524 l 160.623,137.14257 V 181.98242 h 56.9707 l 68.5723,-114.158201 h -125.543 V 15.515625 h 138.7754 V -116.79883 Z"
         style="font-style:normal;font-variant:normal;font-weight:normal;font-stretch:normal;font-size:166.73512268px;line-height:1;font-family:ModernBlck;-inkscape-font-specification:ModernBlck;text-align:center;letter-spacing:0px;word-spacing:0px;text-anchor:middle;fill:#000000;fill-opacity:1;stroke:none;stroke-width:7.38492155"
         inkscape:connector-curvature="0" />
      <path
         id="path4605"
         transform="scale(0.26458333)"
         d="m -800.24609,-116.79883 c -76.10573,2.25651 -135.0818,26.359924 -176.92969,72.310549 -41.84792,45.7454866 -63.07992,100.210467 -63.69532,163.392581 2.4616,74.46462 26.975,132.00402 73.54102,172.62109 46.77118,40.61707 100.8243,61.33766 162.16016,62.1582 27.07805,-0.82054 49.9517,-3.6939 68.61914,-8.61718 18.87259,-4.92328 31.89833,-8.92295 39.07812,-12 l 4.61524,-167.39063 c -9.84655,7.38492 -22.97381,15.79418 -39.38477,25.23047 -16.20578,9.23115 -36.10458,14.25758 -59.69531,15.07813 -30.36024,-1.02569 -52.20714,-10.3602 -65.54102,-28.00196 -13.33387,-17.84689 -19.89845,-38.1556 -19.69336,-60.92578 0.20516,-24.411269 8.10299,-44.821486 23.69336,-61.232421 15.79553,-16.616075 37.33399,-25.232246 64.61719,-25.847657 21.3342,0.615411 39.69481,5.333418 55.08008,14.154297 15.59037,8.615741 28.10277,17.745293 37.53906,27.386719 V -94.642578 c -13.12874,-5.948962 -28.61598,-11.078852 -46.46289,-15.386722 -17.64175,-4.30788 -36.8222,-6.5644 -57.54101,-6.76953 z"
         style="font-style:normal;font-variant:normal;font-weight:normal;font-stretch:normal;font-size:166.73512268px;line-height:1;font-family:ModernBlck;-inkscape-font-specification:ModernBlck;text-align:center;letter-spacing:0px;word-spacing:0px;text-anchor:middle;fill:#000000;fill-opacity:1;stroke:none;stroke-width:7.38492155"
         inkscape:connector-curvature="0" />
      <path
         id="path4603"
         transform="scale(0.26458333)"
         d="m -623.93164,-116.79883 v 457.86524 h 157.54492 V 153.67383 l 109.23633,187.39258 h 194.46875 L -316.8418,114.5957 -181.45117,-116.79883 H -363.61328 L -466.38672,86.287109 V -116.79883 Z"
         style="font-style:normal;font-variant:normal;font-weight:normal;font-stretch:normal;font-size:166.73512268px;line-height:1;font-family:ModernBlck;-inkscape-font-specification:ModernBlck;text-align:center;letter-spacing:0px;word-spacing:0px;text-anchor:middle;fill:#000000;fill-opacity:1;stroke:none;stroke-width:7.38492155"
         inkscape:connector-curvature="0" />
      <path
         style="opacity:1;vector-effect:none;fill:#000000;fill-opacity:1;stroke:none;stroke-width:10.58333302;stroke-linecap:round;stroke-linejoin:round;stroke-miterlimit:4;stroke-dasharray:none;stroke-dashoffset:0;stroke-opacity:1"
         d="M -402.16667,-70.392601 A 112.6369,112.6369 0 0 0 -514.80371,42.243933 112.6369,112.6369 0 0 0 -402.16667,154.88098 112.6369,112.6369 0 0 0 -289.52963,42.243933 112.6369,112.6369 0 0 0 -402.16667,-70.392601 Z m -37.60959,66.8072904 c 9.4738,0 17.15968,7.6857034 17.15968,17.1622596 0,9.48209 -7.68588,17.167944 -17.15968,17.167944 -9.47656,-0.0027 -17.16278,-7.685854 -17.16278,-17.167944 0,-9.4737871 7.68622,-17.1622596 17.16278,-17.1622596 z m 77.82419,0 c 9.47378,0 17.16278,7.6857034 17.16278,17.1622596 0,9.48209 -7.68622,17.167944 -17.16278,17.167944 -9.47102,-0.0027 -17.16794,-7.685854 -17.16794,-17.167944 0,-9.4737871 7.69414,-17.1622596 17.16794,-17.1622596 z m -96.21842,62.1553786 c 3.2548,0 6.34359,1.926527 7.66932,5.123202 7.68585,18.501978 26.72217,30.455504 48.49831,30.455504 21.2835,0 40.20875,-11.96191 48.21568,-30.477727 1.82112,-4.209653 6.7089,-6.149919 10.91303,-4.323249 4.21518,1.81837 6.15264,6.705965 4.33152,10.915613 -10.63623,24.596423 -35.54534,40.488479 -63.46023,40.488479 -28.50992,0 -53.56622,-15.972148 -63.83433,-40.693119 -1.76025,-4.234558 0.24662,-9.094387 4.48395,-10.854634 1.04065,-0.428995 2.11997,-0.634069 3.18275,-0.634069 z"
         id="path4809"
         inkscape:connector-curvature="0" />
    </g>
  </g>
</svg>
